<?xml version="1.0" standalone="no"?>
<svg xmlns:xlink="http://www.w3.org/1999/xlink" id="wave" style="transform:rotate(0deg); transition: 0.3s" viewBox="0 0 1440 490" version="1.1" xmlns="http://www.w3.org/2000/svg"><defs><linearGradient id="sw-gradient-0" x1="0" x2="0" y1="1" y2="0"><stop stop-color="rgba(225, 225, 225, 1)" offset="0%"/><stop stop-color="rgba(0, 0, 0, 1)" offset="100%"/></linearGradient></defs><path style="transform:translate(0, 0px); opacity:1" fill="url(#sw-gradient-0)" d="M0,49L80,40.8C160,33,320,16,480,32.7C640,49,800,98,960,122.5C1120,147,1280,147,1440,163.3C1600,180,1760,212,1920,196C2080,180,2240,114,2400,138.8C2560,163,2720,278,2880,269.5C3040,261,3200,131,3360,98C3520,65,3680,131,3840,138.8C4000,147,4160,98,4320,130.7C4480,163,4640,278,4800,277.7C4960,278,5120,163,5280,98C5440,33,5600,16,5760,65.3C5920,114,6080,229,6240,261.3C6400,294,6560,245,6720,212.3C6880,180,7040,163,7200,171.5C7360,180,7520,212,7680,236.8C7840,261,8000,278,8160,310.3C8320,343,8480,392,8640,359.3C8800,327,8960,212,9120,147C9280,82,9440,65,9600,73.5C9760,82,9920,114,10080,155.2C10240,196,10400,245,10560,294C10720,343,10880,392,11040,367.5C11200,343,11360,245,11440,196L11520,147L11520,490L11440,490C11360,490,11200,490,11040,490C10880,490,10720,490,10560,490C10400,490,10240,490,10080,490C9920,490,9760,490,9600,490C9440,490,9280,490,9120,490C8960,490,8800,490,8640,490C8480,490,8320,490,8160,490C8000,490,7840,490,7680,490C7520,490,7360,490,7200,490C7040,490,6880,490,6720,490C6560,490,6400,490,6240,490C6080,490,5920,490,5760,490C5600,490,5440,490,5280,490C5120,490,4960,490,4800,490C4640,490,4480,490,4320,490C4160,490,4000,490,3840,490C3680,490,3520,490,3360,490C3200,490,3040,490,2880,490C2720,490,2560,490,2400,490C2240,490,2080,490,1920,490C1760,490,1600,490,1440,490C1280,490,1120,490,960,490C800,490,640,490,480,490C320,490,160,490,80,490L0,490Z"/></svg>